#Comment line ignore any data following # character 
#Hierarchical Translation and Rotation (.htr) file 
[Header]	
#Header keywords are followed by a single value 
FileType HTR		#Single word string
DataType HTRS		#Translation followed by rotation and scale data
FileVersion 1		#integer
NumSegments 84		#integer
NumFrames 2		#integer
DataFrameRate 30		#integer, data frame rate in this file
EulerRotationOrder ZYX
CalibrationUnits mm
RotationUnits Degrees
GlobalAxisofGravity Y
BoneLengthAxis Y
ScaleFactor 1.00
[SegmentNames&Hierarchy]
#CHILD	PARENT
MASTER GLOBAL
root MASTER
chest root
L_mid_tent01 root
R_mid_tent01 root
spine01 root
Bip01_Neck chest
L_humerus chest
R_humerus chest
weapon_bone chest
Bip01_Head Bip01_Neck
eye_left_bone Bip01_Head
eye_right_bone Bip01_Head
L_forearm L_humerus
L_front_hand L_forearm
L_weapon_bone L_forearm
L_front_hand01_01 L_front_hand
L_front_hand02_01 L_front_hand
L_front_hand03_01 L_front_hand
L_front_hand01_02 L_front_hand01_01
L_front_hand02_02 L_front_hand02_01
L_front_hand03_02 L_front_hand03_01
R_forearm R_humerus
R_front_hand R_forearm
R_weapon_bone R_forearm
R_front_hand01_01 R_front_hand
R_front_hand02_01 R_front_hand
R_front_hand03_01 R_front_hand
R_front_hand01_02 R_front_hand01_01
R_front_hand02_02 R_front_hand02_01
R_front_hand03_02 R_front_hand03_01
null_rope01_connect L_mid_tent01
Rope1_Seg01 null_rope01_connect
Rope1_Seg02 Rope1_Seg01
Rope1_Seg03 Rope1_Seg02
Rope1_Seg04 Rope1_Seg03
Rope1_Seg05 Rope1_Seg04
Rope1_Seg06 Rope1_Seg05
Rope1_Seg07 Rope1_Seg06
Rope1_Seg09 Rope1_Seg07
L_mid_hand01 Rope1_Seg09
L_mid_hand02 Rope1_Seg09
L_mid_hand03 Rope1_Seg09
null_rope02_connect R_mid_tent01
Rope2_Seg01 null_rope02_connect
Rope2_Seg02 Rope2_Seg01
Rope2_Seg03 Rope2_Seg02
Rope2_Seg04 Rope2_Seg03
Rope2_Seg05 Rope2_Seg04
Rope2_Seg06 Rope2_Seg05
Rope2_Seg07 Rope2_Seg06
Rope2_Seg09 Rope2_Seg07
R_mid_hand01 Rope2_Seg09
R_mid_hand02 Rope2_Seg09
R_mid_hand03 Rope2_Seg09
spine02 spine01
spine03 spine02
pelvis spine03
null_rope03_connect pelvis
null_rope04_connect pelvis
Rope3_Seg01 null_rope03_connect
Rope3_Seg02 Rope3_Seg01
Rope3_Seg03 Rope3_Seg02
Rope3_Seg04 Rope3_Seg03
Rope3_Seg05 Rope3_Seg04
Rope3_Seg06 Rope3_Seg05
Rope3_Seg07 Rope3_Seg06
Rope3_Seg08 Rope3_Seg07
Rope3_Seg09 Rope3_Seg08
R_rear_hand01 Rope3_Seg09
R_rear_hand02 Rope3_Seg09
R_rear_hand03 Rope3_Seg09
Rope4_Seg01 null_rope04_connect
Rope4_Seg02 Rope4_Seg01
Rope4_Seg03 Rope4_Seg02
Rope4_Seg04 Rope4_Seg03
Rope4_Seg05 Rope4_Seg04
Rope4_Seg06 Rope4_Seg05
Rope4_Seg07 Rope4_Seg06
Rope4_Seg08 Rope4_Seg07
Rope4_Seg09 Rope4_Seg08
L_rear_hand01 Rope4_Seg09
L_rear_hand02 Rope4_Seg09
L_rear_hand03 Rope4_Seg09
[BasePosition]
#SegmentName Tx, Ty, Tz, Rx, Ry, Rz, BoneLength
MASTER 0.000000 0.000000 0.000000 -90.000000 0.000000 0.000000 10.000000 
root 0.000000 0.000000 0.000000 0.000000 0.000000 0.000000 10.000000 
chest 0.000000 0.000000 0.000000 0.000000 0.000000 0.000000 10.000000 
L_mid_tent01 0.000000 0.000000 0.000000 0.000000 0.000000 0.000000 10.000000 
R_mid_tent01 0.000000 0.000000 0.000000 0.000000 0.000000 0.000000 10.000000 
spine01 0.000000 0.000000 0.000000 0.000000 0.000000 0.000000 10.000000 
Bip01_Neck 0.000000 0.000000 0.000000 0.000000 0.000000 0.000000 10.000000 
L_humerus 0.000000 0.000000 0.000000 0.000000 0.000000 0.000000 10.000000 
R_humerus 0.000000 0.000000 0.000000 0.000000 0.000000 0.000000 10.000000 
weapon_bone 0.000000 0.000000 0.000000 0.000000 0.000000 0.000000 10.000000 
Bip01_Head 0.000000 0.000000 0.000000 0.000000 0.000000 0.000000 10.000000 
eye_left_bone 0.000000 0.000000 0.000000 0.000000 0.000000 0.000000 10.000000 
eye_right_bone 0.000000 0.000000 0.000000 0.000000 0.000000 0.000000 10.000000 
L_forearm 0.000000 0.000000 0.000000 0.000000 0.000000 0.000000 10.000000 
L_front_hand 0.000000 0.000000 0.000000 0.000000 0.000000 0.000000 10.000000 
L_weapon_bone 0.000000 0.000000 0.000000 0.000000 0.000000 0.000000 10.000000 
L_front_hand01_01 0.000000 0.000000 0.000000 0.000000 0.000000 0.000000 10.000000 
L_front_hand02_01 0.000000 0.000000 0.000000 0.000000 0.000000 0.000000 10.000000 
L_front_hand03_01 0.000000 0.000000 0.000000 0.000000 0.000000 0.000000 10.000000 
L_front_hand01_02 0.000000 0.000000 0.000000 0.000000 0.000000 0.000000 10.000000 
L_front_hand02_02 0.000000 0.000000 0.000000 0.000000 0.000000 0.000000 10.000000 
L_front_hand03_02 0.000000 0.000000 0.000000 0.000000 0.000000 0.000000 10.000000 
R_forearm 0.000000 0.000000 0.000000 0.000000 0.000000 0.000000 10.000000 
R_front_hand 0.000000 0.000000 0.000000 0.000000 0.000000 0.000000 10.000000 
R_weapon_bone 0.000000 0.000000 0.000000 0.000000 0.000000 0.000000 10.000000 
R_front_hand01_01 0.000000 0.000000 0.000000 0.000000 0.000000 0.000000 10.000000 
R_front_hand02_01 0.000000 0.000000 0.000000 0.000000 0.000000 0.000000 10.000000 
R_front_hand03_01 0.000000 0.000000 0.000000 0.000000 0.000000 0.000000 10.000000 
R_front_hand01_02 0.000000 0.000000 0.000000 0.000000 0.000000 0.000000 10.000000 
R_front_hand02_02 0.000000 0.000000 0.000000 0.000000 0.000000 0.000000 10.000000 
R_front_hand03_02 0.000000 0.000000 0.000000 0.000000 0.000000 0.000000 10.000000 
null_rope01_connect 0.000000 0.000000 0.000000 0.000000 0.000000 0.000000 10.000000 
Rope1_Seg01 0.000000 0.000000 0.000000 0.000000 0.000000 0.000000 10.000000 
Rope1_Seg02 0.000000 0.000000 0.000000 0.000000 0.000000 0.000000 10.000000 
Rope1_Seg03 0.000000 0.000000 0.000000 0.000000 0.000000 0.000000 10.000000 
Rope1_Seg04 0.000000 0.000000 0.000000 0.000000 0.000000 0.000000 10.000000 
Rope1_Seg05 0.000000 0.000000 0.000000 0.000000 0.000000 0.000000 10.000000 
Rope1_Seg06 0.000000 0.000000 0.000000 0.000000 0.000000 0.000000 10.000000 
Rope1_Seg07 0.000000 0.000000 0.000000 0.000000 0.000000 0.000000 10.000000 
Rope1_Seg09 0.000000 0.000000 0.000000 0.000000 0.000000 0.000000 10.000000 
L_mid_hand01 0.000000 0.000000 0.000000 0.000000 0.000000 0.000000 10.000000 
L_mid_hand02 0.000000 0.000000 0.000000 0.000000 0.000000 0.000000 10.000000 
L_mid_hand03 0.000000 0.000000 0.000000 0.000000 0.000000 0.000000 10.000000 
null_rope02_connect 0.000000 0.000000 0.000000 0.000000 0.000000 0.000000 10.000000 
Rope2_Seg01 0.000000 0.000000 0.000000 0.000000 0.000000 0.000000 10.000000 
Rope2_Seg02 0.000000 0.000000 0.000000 0.000000 0.000000 0.000000 10.000000 
Rope2_Seg03 0.000000 0.000000 0.000000 0.000000 0.000000 0.000000 10.000000 
Rope2_Seg04 0.000000 0.000000 0.000000 0.000000 0.000000 0.000000 10.000000 
Rope2_Seg05 0.000000 0.000000 0.000000 0.000000 0.000000 0.000000 10.000000 
Rope2_Seg06 0.000000 0.000000 0.000000 0.000000 0.000000 0.000000 10.000000 
Rope2_Seg07 0.000000 0.000000 0.000000 0.000000 0.000000 0.000000 10.000000 
Rope2_Seg09 0.000000 0.000000 0.000000 0.000000 0.000000 0.000000 10.000000 
R_mid_hand01 0.000000 0.000000 0.000000 0.000000 0.000000 0.000000 10.000000 
R_mid_hand02 0.000000 0.000000 0.000000 0.000000 0.000000 0.000000 10.000000 
R_mid_hand03 0.000000 0.000000 0.000000 0.000000 0.000000 0.000000 10.000000 
spine02 0.000000 0.000000 0.000000 0.000000 0.000000 0.000000 10.000000 
spine03 0.000000 0.000000 0.000000 0.000000 0.000000 0.000000 10.000000 
pelvis 0.000000 0.000000 0.000000 0.000000 0.000000 0.000000 10.000000 
null_rope03_connect 0.000000 0.000000 0.000000 0.000000 0.000000 0.000000 10.000000 
null_rope04_connect 0.000000 0.000000 0.000000 0.000000 0.000000 0.000000 10.000000 
Rope3_Seg01 0.000000 0.000000 0.000000 0.000000 0.000000 0.000000 10.000000 
Rope3_Seg02 0.000000 0.000000 0.000000 0.000000 0.000000 0.000000 10.000000 
Rope3_Seg03 0.000000 0.000000 0.000000 0.000000 0.000000 0.000000 10.000000 
Rope3_Seg04 0.000000 0.000000 0.000000 0.000000 0.000000 0.000000 10.000000 
Rope3_Seg05 0.000000 0.000000 0.000000 0.000000 0.000000 0.000000 10.000000 
Rope3_Seg06 0.000000 0.000000 0.000000 0.000000 0.000000 0.000000 10.000000 
Rope3_Seg07 0.000000 0.000000 0.000000 0.000000 0.000000 0.000000 10.000000 
Rope3_Seg08 0.000000 0.000000 0.000000 0.000000 0.000000 0.000000 10.000000 
Rope3_Seg09 0.000000 0.000000 0.000000 0.000000 0.000000 0.000000 10.000000 
R_rear_hand01 0.000000 0.000000 0.000000 0.000000 0.000000 0.000000 10.000000 
R_rear_hand02 0.000000 0.000000 0.000000 0.000000 0.000000 0.000000 10.000000 
R_rear_hand03 0.000000 0.000000 0.000000 0.000000 0.000000 0.000000 10.000000 
Rope4_Seg01 0.000000 0.000000 0.000000 0.000000 0.000000 0.000000 10.000000 
Rope4_Seg02 0.000000 0.000000 0.000000 0.000000 0.000000 0.000000 10.000000 
Rope4_Seg03 0.000000 0.000000 0.000000 0.000000 0.000000 0.000000 10.000000 
Rope4_Seg04 0.000000 0.000000 0.000000 0.000000 0.000000 0.000000 10.000000 
Rope4_Seg05 0.000000 0.000000 0.000000 0.000000 0.000000 0.000000 10.000000 
Rope4_Seg06 0.000000 0.000000 0.000000 0.000000 0.000000 0.000000 10.000000 
Rope4_Seg07 0.000000 0.000000 0.000000 0.000000 0.000000 0.000000 10.000000 
Rope4_Seg08 0.000000 0.000000 0.000000 0.000000 0.000000 0.000000 10.000000 
Rope4_Seg09 0.000000 0.000000 0.000000 0.000000 0.000000 0.000000 10.000000 
L_rear_hand01 0.000000 0.000000 0.000000 0.000000 0.000000 0.000000 10.000000 
L_rear_hand02 0.000000 0.000000 0.000000 0.000000 0.000000 0.000000 10.000000 
L_rear_hand03 0.000000 0.000000 0.000000 0.000000 0.000000 0.000000 10.000000 
#Beginning of Data. Separated by tabs
#Fr	Tx	Ty	Tz	Rx	Ry	Rz	SF
[MASTER]
26 -0.000510 3261.666992 3003.771484 0.001660 0.001660 0.001660 4434.085449
27 -0.000525 3359.170654 2876.847656 0.001660 0.001660 0.001660 4422.700684
[root]
26 -20.405687 -62.360535 1501.484375 -95.632141 -22.663956 -91.258972 1502.917358
27 -18.365660 -62.638550 1501.076904 -94.001060 -25.144272 -90.827164 1502.495483
[chest]
26 -84.512650 -34.090519 0.000000 -1.921355 0.935658 -179.265472 91.129311
27 -84.512650 -34.090519 0.000000 -1.949366 0.913545 179.715683 91.129311
[L_mid_tent01]
26 27.298969 22.179008 -249.918655 -33.868340 11.572279 1.562045 252.381607
27 27.298965 22.179007 -249.918655 -32.933559 11.689704 2.368795 252.381607
[R_mid_tent01]
26 23.228794 24.509907 226.238495 -140.327606 -12.597696 -2.148350 228.744751
27 23.228794 24.509907 226.238495 -140.926468 -11.502382 -2.552587 228.744751
[spine01]
26 -0.361383 -0.195265 0.000000 0.002069 0.001108 33.664410 0.410763
27 -0.361383 -0.195265 0.000000 0.002062 0.001122 32.879826 0.410763
[Bip01_Neck]
26 165.484543 71.581718 0.000119 176.643677 -1.657967 43.431911 180.302734
27 165.484543 71.581718 0.000119 176.643677 -1.657967 43.431911 180.302734
[L_humerus]
26 -13.983130 -135.272980 -120.471481 -5.480129 68.873367 84.573456 181.680161
27 -13.983130 -135.272980 -120.471481 -5.480134 68.873390 84.573456 181.680161
[R_humerus]
26 -13.983309 -135.273102 125.287651 27.830740 -69.921516 67.902298 184.909012
27 -13.983309 -135.273102 125.287651 27.830740 -69.921509 67.902290 184.909012
[weapon_bone]
26 235.964890 -300.705902 0.000000 0.000000 -89.951546 -128.212341 382.234833
27 235.964890 -300.705902 0.000000 0.000000 -89.951546 -128.212341 382.234833
[Bip01_Head]
26 213.399353 185.840439 10.160479 3.847176 1.957127 -27.497417 283.159302
27 213.377228 185.901642 9.373750 4.233040 3.256987 -32.503738 283.155640
[eye_left_bone]
26 -24.626970 125.451866 -64.772606 0.000000 -90.000000 -99.840431 143.318359
27 -24.626970 125.451866 -64.772606 0.000000 -90.000000 -99.840431 143.318359
[eye_right_bone]
26 -24.626970 125.451866 64.327362 0.000000 -89.965736 80.156380 143.117676
27 -24.626970 125.451866 64.327362 0.000000 -89.965736 80.156380 143.117676
[L_forearm]
26 322.776093 0.000000 -0.000119 0.000416 -0.002310 -110.413208 322.776093
27 322.776093 0.000000 -0.000119 0.000414 -0.002310 -110.313782 322.776093
[L_front_hand]
26 241.149185 -0.042021 -3.300071 -178.667953 -1.835447 -27.422350 241.171753
27 241.149185 -0.042021 -3.300071 -178.667953 -1.835447 -27.422350 241.171753
[L_weapon_bone]
26 156.183838 0.000000 0.000000 0.000014 0.000007 0.000001 156.183838
27 156.183838 0.000000 0.000000 0.000014 0.000007 0.000001 156.183838
[L_front_hand01_01]
26 86.095154 20.947098 -0.655860 -0.342291 -0.495149 72.451675 88.609184
27 86.095154 20.947098 -0.655860 -0.349230 -0.490138 73.139862 88.609184
[L_front_hand02_01]
26 86.935165 -11.437475 24.513514 150.048462 -58.519783 -56.305634 91.046425
27 86.935165 -11.437475 24.513514 151.025055 -58.854900 -57.448078 91.046425
[L_front_hand03_01]
26 86.637497 -14.123976 -20.424902 -149.869949 56.734909 -57.903400 90.126129
27 86.637497 -14.123976 -20.424902 -150.781448 57.074532 -58.996441 90.126129
[L_front_hand01_02]
26 71.020905 -0.000179 0.000030 0.000322 -0.002325 -105.778519 71.020905
27 71.020905 -0.000179 0.000030 0.000323 -0.002325 -105.832047 71.020905
[L_front_hand02_02]
26 71.020927 -0.000119 0.000060 0.000322 -0.002325 -105.778519 71.020927
27 71.020927 -0.000119 0.000060 0.000323 -0.002325 -105.832047 71.020927
[L_front_hand03_02]
26 71.020905 -0.000060 0.000060 0.000322 -0.002325 -105.778519 71.020905
27 71.020905 -0.000060 0.000060 0.000323 -0.002325 -105.832047 71.020905
[R_forearm]
26 322.776428 -0.000060 0.000030 0.201526 0.066925 -109.065964 322.776428
27 322.776428 -0.000060 0.000030 0.201584 0.066751 -108.966911 322.776428
[R_front_hand]
26 238.847015 -0.006795 2.210259 -2.635298 -10.645461 -26.312506 238.857239
27 238.847015 -0.006795 2.210259 -2.635298 -10.645461 -26.312506 238.857239
[R_weapon_bone]
26 155.664093 0.002503 -0.000030 0.003487 0.001180 -90.988930 155.664078
27 155.664093 0.002503 -0.000030 0.003487 0.001180 -90.988930 155.664078
[R_front_hand01_01]
26 87.624611 14.231146 22.918642 -153.375839 -59.587151 60.286892 91.683487
27 87.624611 14.231146 22.918642 -154.293076 -59.856678 61.349701 91.683487
[R_front_hand02_01]
26 89.356956 14.367283 -19.491137 153.420532 57.944527 62.356834 92.579636
27 89.356956 14.367283 -19.491137 154.283218 58.213089 63.373535 92.579636
[R_front_hand03_01]
26 87.286232 -22.307278 -0.143439 0.155221 -0.427320 -74.955528 90.091743
27 87.286232 -22.307278 -0.143439 0.161369 -0.423469 -75.555016 90.091743
[R_front_hand01_02]
26 71.020905 0.000060 0.000119 0.002323 -0.000334 106.381714 71.020905
27 71.020905 0.000060 0.000119 0.002323 -0.000334 106.381714 71.020905
[R_front_hand02_02]
26 71.020844 -0.000030 -0.000119 0.002323 -0.000334 106.381714 71.020836
27 71.020844 -0.000030 -0.000119 0.002323 -0.000334 106.381714 71.020836
[R_front_hand03_02]
26 71.020905 0.000000 0.000030 0.002323 -0.000334 106.381714 71.020905
27 71.020905 0.000000 0.000030 0.002323 -0.000334 106.381714 71.020905
[null_rope01_connect]
26 328.732483 0.000000 -0.000238 -142.867752 -48.225761 -109.468590 328.732483
27 328.732483 0.000000 -0.000238 -140.396698 -50.883205 -110.192284 328.732483
[Rope1_Seg01]
26 0.000024 -0.000209 -0.000196 144.937759 30.305981 -147.697220 0.000288
27 0.000025 -0.000216 -0.000203 144.467697 29.151337 -144.720932 0.000298
[Rope1_Seg02]
26 139.999863 -0.000179 0.000000 -29.932680 13.196746 1.246133 139.999863
27 139.999863 -0.000179 0.000000 -34.840290 13.229260 2.042696 139.999863
[Rope1_Seg03]
26 139.999924 0.000060 -0.000060 -39.475239 13.467645 8.831538 139.999924
27 139.999924 0.000060 -0.000060 -38.616951 12.115459 10.933228 139.999924
[Rope1_Seg04]
26 139.999924 -0.000060 -0.000119 -23.806498 6.288972 16.446529 139.999924
27 139.999924 -0.000060 -0.000119 -19.831955 3.463372 17.518852 139.999924
[Rope1_Seg05]
26 139.999832 0.000119 -0.000060 -0.370651 -6.693675 7.459780 139.999832
27 139.999832 0.000119 -0.000060 0.686797 -5.299895 4.679653 139.999832
[Rope1_Seg06]
26 139.999954 0.000119 -0.000060 2.847545 -5.412601 1.184479 139.999954
27 139.999954 0.000119 -0.000060 3.078343 -3.625572 -0.734348 139.999954
[Rope1_Seg07]
26 139.999985 0.000060 0.000000 0.258443 -2.154335 1.866683 139.999985
27 139.999985 0.000060 0.000000 0.411846 -1.599843 1.089029 139.999985
[Rope1_Seg09]
26 121.602913 0.000119 -0.000089 -89.793175 -1.359789 0.847147 121.602913
27 121.602913 0.000119 -0.000089 -89.793175 -1.359789 0.847147 121.602913
[L_mid_hand01]
26 103.859421 1.038730 8.195221 130.544373 -67.584534 -38.866943 104.187431
27 103.859421 1.038730 8.195221 130.544388 -67.584534 -38.866955 104.187431
[L_mid_hand02]
26 105.572853 -4.139662 -10.864139 -168.923172 43.409309 -73.498886 106.211075
27 105.572853 -4.139662 -10.864139 -168.923172 43.409309 -73.498894 106.211075
[L_mid_hand03]
26 104.641464 17.579376 -3.913581 -6.012627 17.808174 74.893669 106.179977
27 104.641464 17.579376 -3.913581 -6.012625 17.808174 74.893669 106.179977
[null_rope02_connect]
26 328.732849 0.000179 -0.000119 -139.597519 54.875107 -69.546181 328.732849
27 328.732849 0.000179 -0.000119 -137.856125 53.910679 -71.248131 328.732849
[Rope2_Seg01]
26 0.000101 -0.000155 0.000000 27.396412 -7.485796 -44.054630 0.000184
27 0.000102 -0.000165 0.000000 34.542130 -13.358911 -48.435875 0.000194
[Rope2_Seg02]
26 139.999741 -0.000060 -0.000119 4.672882 2.590751 -3.373748 139.999756
27 139.999741 -0.000060 -0.000119 3.798023 1.883329 -3.296781 139.999756
[Rope2_Seg03]
26 140.000107 0.000030 0.000000 6.520253 2.307645 -3.588502 140.000107
27 140.000107 0.000030 0.000000 4.046701 1.448610 -2.981335 140.000107
[Rope2_Seg04]
26 139.999802 0.000000 -0.000060 9.106805 1.972523 -3.801745 139.999802
27 139.999802 0.000000 -0.000060 3.913721 0.988074 -2.503481 139.999802
[Rope2_Seg05]
26 139.999985 -0.000060 0.000119 11.067851 1.144193 -3.530419 139.999985
27 139.999985 -0.000060 0.000119 3.733703 0.700718 -2.162821 139.999985
[Rope2_Seg06]
26 139.999893 -0.000030 -0.000119 16.102161 0.171574 -3.990787 139.999893
27 139.999893 -0.000030 -0.000119 6.082673 0.820942 -3.110041 139.999893
[Rope2_Seg07]
26 139.999893 0.000060 -0.000060 29.150476 -1.876391 -6.412258 139.999893
27 139.999893 0.000060 -0.000060 13.697197 0.889599 -5.727182 139.999893
[Rope2_Seg09]
26 121.338966 0.000089 -0.000060 33.793236 -1.359788 -0.847141 121.338966
27 121.338966 0.000089 -0.000060 33.793236 -1.359788 -0.847141 121.338966
[R_mid_hand01]
26 104.680779 11.144459 -10.335981 -16.212063 45.237247 70.462852 105.778534
27 104.680779 11.144459 -10.335981 -16.212063 45.237247 70.462852 105.778534
[R_mid_hand02]
26 104.070427 2.443552 8.231699 49.067375 -67.749794 39.286461 104.424065
27 104.070427 2.443552 8.231699 49.067368 -67.749771 39.286453 104.424065
[R_mid_hand03]
26 106.028137 -11.221827 -5.996406 -177.101105 15.551026 -76.585571 106.788818
27 106.028137 -11.221827 -5.996406 -177.101105 15.551026 -76.585571 106.788818
[spine02]
26 129.756927 0.001550 0.000119 -0.524143 -4.027289 -0.435240 129.756927
27 129.756927 0.001550 0.000119 -0.457932 -4.036006 -1.377902 129.756927
[spine03]
26 78.614151 0.081678 -4.899024 1.956039 3.802655 17.370153 78.766693
27 78.614151 0.081685 -4.899025 1.949908 3.805507 17.279909 78.766693
[pelvis]
26 169.435242 0.051022 0.000000 -0.066372 -0.178822 15.901521 169.435257
27 169.435242 0.051022 0.000000 -0.065475 -0.179012 15.719290 169.435257
[null_rope03_connect]
26 -1.257226 -2.466202 137.391083 -144.990845 -83.952469 -168.830414 137.418976
27 -1.257226 -2.466202 137.391083 -142.369522 -85.824394 -166.940338 137.418976
[null_rope04_connect]
26 -1.259640 -2.480268 -137.844437 -144.990845 -83.952469 -168.830414 137.872513
27 -1.259640 -2.480268 -137.844437 -142.369522 -85.824394 -166.940338 137.872513
[Rope3_Seg01]
26 -0.000029 -0.000014 0.000196 -128.883301 30.947649 -69.719170 0.000198
27 -0.000029 -0.000013 0.000203 -126.338623 27.863134 -64.499657 0.000206
[Rope3_Seg02]
26 139.999924 -0.000119 0.000060 -0.011349 0.838014 -5.837010 139.999924
27 139.999924 -0.000119 0.000060 -0.509586 2.597446 -5.290206 139.999924
[Rope3_Seg03]
26 139.999924 -0.000119 0.000119 0.403898 -6.083243 1.005429 139.999924
27 139.999924 -0.000119 0.000119 0.620383 -4.838350 1.995229 139.999924
[Rope3_Seg04]
26 139.999924 0.000119 0.000000 -1.321092 7.791077 -5.717316 139.999924
27 139.999924 0.000119 0.000000 -3.146484 11.857577 -9.442450 139.999924
[Rope3_Seg05]
26 139.999924 -0.000238 0.000060 -3.868925 19.306644 -11.978976 139.999924
27 139.999924 -0.000238 0.000060 -6.142426 20.077988 -14.526356 139.999924
[Rope3_Seg06]
26 139.999893 -0.000119 -0.000060 -1.144201 11.841614 -6.719085 139.999893
27 139.999893 -0.000119 -0.000060 -1.590824 9.356977 -5.733636 139.999893
[Rope3_Seg07]
26 139.999771 0.000060 -0.000119 -0.044468 6.371767 -3.587615 139.999771
27 139.999771 0.000060 -0.000119 -0.431235 5.241225 -3.073139 139.999771
[Rope3_Seg08]
26 139.999985 -0.000060 0.000000 0.298562 3.752374 -2.116474 139.999985
27 139.999985 -0.000060 0.000000 0.048446 3.059566 -1.768301 139.999985
[Rope3_Seg09]
26 90.185997 -0.000179 -0.000060 89.793228 -1.359877 -0.847183 90.185997
27 90.185997 -0.000179 -0.000060 89.793228 -1.359877 -0.847183 90.185997
[R_rear_hand01]
26 103.366196 -6.073594 -10.757982 -177.714203 24.565960 -73.910950 104.101845
27 103.366196 -6.073594 -10.757982 -177.714203 24.565960 -73.910950 104.101845
[R_rear_hand02]
26 100.509819 12.039542 -7.992327 -12.874829 36.868488 72.167213 101.543350
27 100.509819 12.039542 -7.992327 -12.874829 36.868488 72.167213 101.543350
[R_rear_hand03]
26 101.539970 5.215704 5.435467 71.484627 -71.816643 21.513817 101.819031
27 101.539970 5.215704 5.435467 71.484581 -71.816628 21.513813 101.819031
[Rope4_Seg01]
26 0.000010 0.000014 -0.000055 51.225632 -10.470637 -116.546173 0.000057
27 0.000010 0.000013 -0.000051 51.442665 -12.578678 -113.943314 0.000053
[Rope4_Seg02]
26 139.999985 0.000060 0.000119 -2.201627 -2.657298 -8.743424 139.999985
27 139.999985 0.000060 0.000119 -1.957319 -2.590041 -8.804359 139.999985
[Rope4_Seg03]
26 139.999924 0.000000 -0.000238 -5.310991 -2.772791 -13.531178 139.999924
27 139.999924 0.000000 -0.000238 -4.697879 -2.889937 -13.328942 139.999924
[Rope4_Seg04]
26 139.999985 0.000000 0.000119 -18.674063 4.695846 -27.693886 139.999985
27 139.999985 0.000000 0.000119 -17.942301 5.294168 -28.338987 139.999985
[Rope4_Seg05]
26 139.999802 -0.000060 -0.000119 4.782208 -16.020416 -2.581276 139.999802
27 139.999802 -0.000060 -0.000119 1.691213 -13.680140 -5.144554 139.999802
[Rope4_Seg06]
26 139.999924 0.000000 0.000060 41.031944 -28.956270 16.115650 139.999924
27 139.999924 0.000000 0.000060 41.194038 -32.307850 14.987393 139.999924
[Rope4_Seg07]
26 139.999802 0.000000 0.000000 17.761700 -5.054178 10.075359 139.999802
27 139.999802 0.000000 0.000000 20.035305 -6.120474 10.779443 139.999802
[Rope4_Seg08]
26 139.999924 0.000000 0.000119 6.533121 -0.886051 5.556169 139.999924
27 139.999924 0.000000 0.000119 7.118139 -1.078464 5.715097 139.999924
[Rope4_Seg09]
26 90.185791 0.000060 0.000060 -135.617828 2.228885 0.850567 90.185791
27 90.185791 0.000060 0.000060 -135.617828 2.228885 0.850567 90.185791
[L_rear_hand01]
26 101.696655 -8.392275 -7.654577 -12.874829 -36.868488 107.832764 102.329041
27 101.696655 -8.392275 -7.654577 -12.874829 -36.868488 107.832764 102.329041
[L_rear_hand02]
26 102.726799 -1.568258 5.773216 71.484627 71.816643 158.486160 102.900848
27 102.726799 -1.568258 5.773216 71.484581 71.816628 158.486160 102.900848
[L_rear_hand03]
26 104.552910 9.721220 -10.420293 -177.714203 -24.565966 -106.089035 105.519653
27 104.552910 9.721220 -10.420293 -177.714203 -24.565960 -106.089035 105.519653
